<svg preserveAspectRatio="none" width="100%" height="100%" overflow="visible" style="display: block;" viewBox="0 0 1455.83 609.833" fill="none" xmlns="http://www.w3.org/2000/svg">
<g id="Vector 4" opacity="0.1" filter="url(#filter0_d_0_4)">
<path d="M50.7215 555.576C49.7512 556.559 49.7608 558.141 50.743 559.112C51.7252 560.082 53.3081 560.073 54.2785 559.09L52.5 557.333L50.7215 555.576ZM381.664 368.175L382.105 370.636L381.664 368.175ZM1379.17 63.3333C1379.17 70.6971 1385.14 76.6667 1392.5 76.6667C1399.86 76.6667 1405.83 70.6971 1405.83 63.3333C1405.83 55.9695 1399.86 50 1392.5 50C1385.14 50 1379.17 55.9695 1379.17 63.3333ZM52.5 557.333L54.2785 559.09C86.386 526.591 141.417 484.282 201.976 447.666C262.564 411.032 328.396 380.273 382.105 370.636L381.664 368.175L381.222 365.715C326.611 375.514 260.155 406.646 199.389 443.387C138.593 480.147 83.2017 522.7 50.7215 555.576L52.5 557.333ZM381.664 368.175L382.105 370.636C449.063 358.622 496.356 375.969 540.82 396.508C585.224 417.02 627.266 441.023 682.814 441.023V438.523V436.023C628.64 436.023 587.807 412.705 542.917 391.969C498.087 371.261 449.665 353.434 381.222 365.715L381.664 368.175ZM682.814 438.523V441.023C711.075 441.023 734.117 428.412 754.635 409.844C775.093 391.331 793.271 366.679 811.743 342.328C848.954 293.278 887.342 245.612 948.946 245.612V243.112V240.612C884.487 240.612 844.67 290.651 807.76 339.307C789.173 363.809 771.311 388.01 751.28 406.137C731.31 424.208 709.413 436.023 682.814 436.023V438.523ZM948.946 243.112V245.612C980.25 245.612 1002.45 249.493 1019.8 255.255C1037.15 261.016 1049.77 268.693 1061.99 276.485C1074.19 284.264 1086.09 292.236 1101.69 298.207C1117.34 304.195 1136.62 308.143 1163.72 308.143V305.643V303.143C1137.13 303.143 1118.47 299.275 1103.48 293.538C1088.44 287.784 1076.99 280.123 1064.68 272.27C1052.39 264.429 1039.33 256.473 1021.37 250.51C1003.42 244.547 980.673 240.612 948.946 240.612V243.112ZM1163.72 305.643V308.143C1185.87 308.143 1208.86 299.085 1231.4 284.156C1253.96 269.214 1276.25 248.278 1297.04 224.229C1338.63 176.138 1374.49 115.319 1394.82 64.2582L1392.5 63.3333L1390.18 62.4084C1370.05 112.961 1334.47 173.298 1293.26 220.958C1272.66 244.785 1250.71 265.373 1228.64 279.987C1206.55 294.614 1184.53 303.143 1163.72 303.143V305.643Z" fill="var(--stroke-0, #e7342b)"/>
</g>
<defs>
<filter id="filter0_d_0_4" x="-2.38419e-07" y="-9.53674e-07" width="1455.83" height="609.833" filterUnits="userSpaceOnUse" color-interpolation-filters="sRGB">
<feFlood flood-opacity="0" result="BackgroundImageFix"/>
<feColorMatrix in="SourceAlpha" type="matrix" values="0 0 0 0 0 0 0 0 0 0 0 0 0 0 0 0 0 0 127 0" result="hardAlpha"/>
<feOffset/>
<feGaussianBlur stdDeviation="25"/>
<feComposite in2="hardAlpha" operator="out"/>
<feColorMatrix type="matrix" values="0 0 0 0 1 0 0 0 0 0.564706 0 0 0 0 0.152941 0 0 0 1 0"/>
<feBlend mode="normal" in2="BackgroundImageFix" result="effect1_dropShadow_0_4"/>
<feBlend mode="normal" in="SourceGraphic" in2="effect1_dropShadow_0_4" result="shape"/>
</filter>
</defs>
</svg>
